<svg height="511pt" viewBox="0 -9 511.99928 511" width="511pt" xmlns="http://www.w3.org/2000/svg"><path d="m327.628906 304.304688c-.539062 2.039062-1.671875 3.972656-3.492187 5.59375-53.617188 47.746093-132.757813 61.265624-201.390625 28.085937-88.882813-42.988281-127.773438-149.6875-87.242188-239.710937 21.230469-47.15625 59.71875-80.753907 104.449219-96.980469 1.742187-.632813 3.464844-.828125 5.082031-.652344 7.589844.761719 13 9.382813 8.753906 16.992187-68.886718 123.382813 22.777344 274.664063 162.636719 272.289063 8.128907-.132813 12.988281 7.609375 11.203125 14.382813zm0 0" fill="#f29500"/><path d="m327.628906 304.304688c-46.5625 21.230468-101.746094 22.382812-151.265625-1.566407-86.53125-41.851562-124.234375-146.0625-84.5625-234.140625 12.46875-27.6875 30.988281-50.609375 53.234375-67.957031 7.589844.761719 13 9.382813 8.753906 16.992187-68.886718 123.382813 22.777344 274.664063 162.636719 272.289063 8.128907-.132813 12.988281 7.609375 11.203125 14.382813zm0 0" fill="#ffb52d"/><path d="m483.277344 401.222656h-266.269532c-16.605468 0-46.503906-18.640625-46.503906-51.769531 0-14.007813 5.214844-25.964844 13.417969-34.839844 15.574219-16.878906 41.917969-22.644531 63.667969-10.339843 2.648437 1.496093 6.03125.042968 6.691406-2.933594 6.960938-31.703125 35.207031-55.425782 69.007812-55.425782 31.570313 0 58.3125 20.71875 67.367188 49.304688.683594 2.148438 2.875 3.453125 5.105469 3.066406 32.097656-5.605468 58.21875 24.875 49.914062 54.949219-.804687 2.933594 1.355469 5.824219 4.390625 5.824219h32.710938c11.429687 0 21.160156 8.894531 21.566406 20.3125.429688 11.992187-9.167969 21.851562-21.066406 21.851562zm0 0" fill="#2476ed"/><path d="m320.242188 119.617188h-15.355469l6.378906-6.378907c2.984375-2.984375 2.984375-7.820312 0-10.804687-2.980469-2.984375-7.820313-2.984375-10.804687 0l-6.378907 6.378906v-15.351562c0-4.222657-3.421875-7.640626-7.640625-7.640626s-7.640625 3.417969-7.640625 7.640626v15.351562l-6.378906-6.378906c-2.984375-2.984375-7.820313-2.984375-10.804687 0-2.984376 2.984375-2.984376 7.820312 0 10.804687l6.378906 6.378907h-15.351563c-4.21875 0-7.640625 3.421874-7.640625 7.640624s3.421875 7.640626 7.640625 7.640626h15.351563l-6.378906 6.378906c-4.828126 4.828125-1.34375 13.042968 5.402343 13.042968 4.945313 0 6.574219-4.050781 11.78125-8.617187v15.355469c0 4.21875 3.421875 7.640625 7.640625 7.640625s7.640625-3.421875 7.640625-7.640625v-15.355469c5.214844 4.574219 6.835938 8.617187 11.78125 8.617187 6.746094 0 10.230469-8.214843 5.402344-13.042968l-6.378906-6.378906h15.355469c4.21875 0 7.640624-3.421876 7.640624-7.640626s-3.421874-7.640624-7.640624-7.640624zm0 0" fill="#ffa90b"/><path d="m504.359375 219.296875h-15.351563l6.378907-6.378906c2.984375-2.984375 2.984375-7.824219 0-10.804688-2.984375-2.984375-7.820313-2.984375-10.804688 0l-6.378906 6.378907v-15.351563c0-4.222656-3.421875-7.640625-7.640625-7.640625s-7.640625 3.417969-7.640625 7.640625v15.351563l-6.382813-6.378907c-2.980468-2.984375-7.820312-2.984375-10.800781 0-2.984375 2.984375-2.984375 7.820313 0 10.804688l6.378907 6.378906h-15.355469c-4.21875 0-7.640625 3.421875-7.640625 7.640625s3.421875 7.640625 7.640625 7.640625h15.355469l-6.382813 6.378906c-4.828125 4.828125-1.339844 13.042969 5.402344 13.042969 4.949219 0 6.574219-4.046875 11.785156-8.617188v15.355469c0 4.21875 3.417969 7.636719 7.636719 7.636719 4.222656 0 7.640625-3.417969 7.640625-7.636719v-15.355469l6.382812 6.378907c2.984375 2.984375 7.820313 2.984375 10.804688 0 2.980469-2.984375 2.980469-7.820313 0-10.804688l-6.382813-6.378906h15.355469c4.21875 0 7.640625-3.421875 7.640625-7.640625s-3.421875-7.640625-7.640625-7.640625zm0 0" fill="#ffc14f"/><path d="m419.949219 34.296875h-15.351563l6.378906-6.378906c2.984376-2.984375 2.984376-7.824219 0-10.804688-2.984374-2.984375-7.820312-2.984375-10.804687 0l-6.378906 6.378907v-15.351563c0-4.21875-3.421875-7.640625-7.640625-7.640625s-7.640625 3.421875-7.640625 7.640625v15.351563l-6.382813-6.378907c-2.980468-2.984375-7.820312-2.984375-10.800781 0-2.984375 2.984375-2.984375 7.820313 0 10.804688l6.378906 6.378906h-15.351562c-4.222657 0-7.640625 3.421875-7.640625 7.640625s3.417968 7.640625 7.640625 7.640625h15.351562l-6.378906 6.382813c-4.828125 4.824218-1.34375 13.039062 5.402344 13.039062 4.945312 0 6.574219-4.046875 11.78125-8.617188v15.355469c0 4.21875 3.421875 7.640625 7.640625 7.640625s7.640625-3.421875 7.640625-7.640625v-15.355469c5.214843 4.574219 6.835937 8.617188 11.78125 8.617188 6.746093 0 10.230469-8.214844 5.402343-13.042969l-6.378906-6.378906h15.351563c4.222656 0 7.640625-3.421875 7.640625-7.640625s-3.421875-7.640625-7.640625-7.640625zm0 0" fill="#f29500"/><path d="m365.75 401.222656h-148.742188c-16.605468 0-46.503906-18.640625-46.503906-51.769531 0-14.007813 5.214844-25.964844 13.417969-34.839844 9.117187-4.289062 19.292969-6.683593 30.019531-6.683593 8.945313 0 17.5 1.660156 25.375 4.699218 23.902344 9.199219 41.542969 31.019532 44.753906 57.289063 30.824219-22.949219 74.640626-4.980469 81.679688 31.304687zm0 0" fill="#0a66ea"/><path d="m333.851562 441.515625c0 8.503906-1.964843 16.054687-5.1875 22.574219-9.289062 18.894531-28.96875 29.195312-41.316406 29.195312h-265.753906c-11.425781 0-21.160156-8.878906-21.578125-20.296875-.441406-11.992187 9.152344-21.867187 21.0625-21.867187h35.652344c1.875 0 3.207031-1.835938 2.617187-3.613282-10.410156-31.230468 17.160156-63.851562 50.710938-56.890624 1.402344.289062 2.796875-.53125 3.203125-1.90625 8.59375-29.316407 35.703125-50.738282 67.804687-50.738282 8.941406 0 17.5 1.660156 25.375 4.695313 21.207032 8.164062 37.488282 26.265625 43.128906 48.597656 1.003907 3.960937 5.480469 5.886719 9.121094 4.023437 32.9375-16.835937 75.160156 6.367188 75.160156 46.226563zm0 0" fill="#0a4499"/><path d="m333.851562 441.515625c0 8.503906-1.964843 16.054687-5.1875 22.574219h-221.355468c-11.425782 0-21.160156-8.878906-21.578125-20.296875-.441407-11.992188 9.152343-21.867188 21.0625-21.867188h31.851562c3.648438 0 6.324219-3.421875 5.449219-6.960937-7.273438-29.425782 18.042969-58.789063 49.328125-53.960938 2.734375.421875 5.390625-1.125 6.261719-3.75 1.699218-5.152344 3.976562-10.039062 6.757812-14.585937 21.207032 8.164062 37.492188 26.265625 43.128906 48.597656 1.003907 3.960937 5.480469 5.886719 9.121094 4.023437 32.9375-16.835937 75.160156 6.367188 75.160156 46.226563zm0 0" fill="#0956c6"/></svg>